<?xml version="1.0" encoding="UTF-8" standalone="no"?>
<svg
   width="1500"
   height="450"
   viewBox="0 0 3147.6662 1032.7188"
   version="1.1"
   xmlns="http://www.w3.org/2000/svg"
   >
  <g
     fill="none"
     stroke="#000000"
     stroke-width="1"
     id="g78"
     transform="translate(20633.644,-111618.37)">
        <line
           x1="-20633.145"
           y1="111868.87"
           x2="-19733.145"
           y2="111868.87"
           id="line4" />
        <path
           d="m -18051.144,111868.87 a 631.01795,631.01795 0 0 0 -166,21.5"
           id="path6" />
        <line
           x1="-18051.145"
           y1="111868.87"
           x2="-18217.145"
           y2="111868.87"
           id="line8" />
        <path
           d="m -19933.083,111890.37 a 631.01795,631.01795 0 0 0 -166,-21.5"
           id="path10" />
        <line
           x1="-20099.084"
           y1="111868.87"
           x2="-19933.084"
           y2="111868.87"
           id="line12" />
        <path
           d="m -18518.404,111934.07 a 631.01795,631.01795 0 0 0 -166,-21.5"
           id="path14" />
        <line
           x1="-18684.404"
           y1="111912.56"
           x2="-18383.145"
           y2="111912.56"
           id="line16" />
        <path
           d="m -19933.083,111890.37 a 631.01795,631.01795 0 0 0 165.908,22.2"
           id="path18" />
        <line
           x1="-19933.084"
           y1="111890.37"
           x2="-19772.74"
           y2="111933.34"
           id="line20" />
        <path
           d="m -19772.739,111933.33 a 631.01795,631.01795 0 0 0 166,21.5"
           id="path22" />
        <line
           x1="-19606.74"
           y1="111954.84"
           x2="-19772.74"
           y2="111954.84"
           id="line24" />
        <line
           x1="-19767.174"
           y1="111912.56"
           x2="-19733.145"
           y2="111912.56"
           id="line28" />
        <line
           x1="-19772.74"
           y1="111954.84"
           x2="-20091.848"
           y2="111954.84"
           id="line30" />
        <line
           x1="-19733.145"
           y1="111868.87"
           x2="-18833.145"
           y2="111868.87"
           id="line32" />
        <rect x="-19293.145" y="111848.87" fill="#fff" width="40" height="45"  style="stroke-width:0;"/>
        <text x="-19283.145" y="111878.87" font-size="30pt">3</text>

        <line
           x1="-19733.145"
           y1="111912.56"
           x2="-18833.145"
           y2="111912.56"
           id="line34" />
        <rect x="-19293.145" y="111892.56" fill="#fff" width="40" height="45" style="stroke-width:0;"/>
        <text x="-19283.145" y="111922.56" font-size="30pt">2</text>
        <line
           x1="-19606.74"
           y1="111954.84"
           x2="-18833.145"
           y2="111954.84"
           id="line36" />
        <rect x="-19293.145" y="111944.84" fill="#fff" width="40" height="45" style="stroke-width:0;"/>
        <text x="-19283.145" y="111964.84" font-size="30pt">1</text>
        <line
           x1="-18833.145"
           y1="111868.87"
           x2="-17933.145"
           y2="111868.87"
           id="line40" />
        <rect x="-20005.084" y="111944.84" fill="#fff" width="50" height="45" style="stroke-width:0;"/>
        <text x="-20000.084" y="111964.84" font-size="30pt">1a</text>
        <path
           d="m -17702.028,112524.41 a 1638.9112,1638.9112 0 0 0 -816.376,-590.34"
           id="path52" />
        <line
           x1="-18833.145"
           y1="111912.56"
           x2="-18684.404"
           y2="111912.56"
           id="line54" />
        <path
           d="m -18383.144,111911.87 a 631.01795,631.01795 0 0 0 166,-21.5"
           id="path56" />
        <line
           x1="-18833.145"
           y1="111954.84"
           x2="-18567.486"
           y2="111954.84"
           id="line58" />
        <path
           d="m -18401.486,111976.33 a 631.01795,631.01795 0 0 0 -166,-21.5"
           id="path60" />
        <path
           d="m -20010.524,111860.14 h 30 v -30 h -30 z"
           id="path62" />
        <path
           d="m -19778.518,111905.26 h 30 v -30 h -30 z"
           id="path64" />
        <path
           d="m -18787.135,111948.13 h 30 v -30 h -30 z"
           id="path66" />
        <path
           d="m -18410.856,111904.76 h 30 v -30 h -30 z"
           id="path68" />
  </g>
</svg>
